<?xml version="1.0" encoding="utf-8"?>
<!-- Generator: Adobe Illustrator 16.0.0, SVG Export Plug-In . SVG Version: 6.00 Build 0)  -->
<!DOCTYPE svg PUBLIC "-//W3C//DTD SVG 1.1//EN" "http://www.w3.org/Graphics/SVG/1.1/DTD/svg11.dtd">
<svg version="1.1" id="图层_1" xmlns="http://www.w3.org/2000/svg" xmlns:xlink="http://www.w3.org/1999/xlink" x="0px" y="0px"
	 width="640px" height="640px" viewBox="0 0 640 640" enable-background="new 0 0 640 640" xml:space="preserve">
<g>
	<g>
		<path d="M319.492,94c-25.274,0.254-47.738,2.298-67.649,6.382c-19.913,4.339-37.525,9.957-52.587,17.357
			c-11.487,5.617-21.699,11.745-30.633,18.635c-9.188,6.892-17.104,14.296-23.994,21.955c-10.211,11.741-18.38,23.994-24.508,36.503
			c-6.382,12.509-10.976,24.506-14.041,36.503c-3.063,11.745-5.105,22.464-6.125,32.42c-1.021,9.7-1.533,17.869-1.276,24.25
			c0,1.277,0,2.3,0,3.064c-4.597,1.788-8.68,3.829-12.255,6.382c-5.106,3.318-9.443,7.404-13.018,11.999
			c-3.576,4.594-6.382,9.446-8.423,15.059c-2.3,5.363-3.829,10.979-4.595,16.851c-1.021,6.124-1.534,12.252-1.534,18.634
			c0.257,11.741,1.534,23.996,3.829,36.504c2.042,10.464,4.852,20.166,8.17,29.101c2.298,6.637,5.359,12.765,8.935,18.379
			c3.317,5.616,7.658,10.467,12.508,14.551c4.849,4.341,10.211,7.404,16.594,9.7c6.125,2.044,13.017,3.32,20.422,3.32
			c5.105,0,10.719-0.511,16.593-1.788c1.529-0.256,2.807-1.022,4.083-2.042c1.788,0.767,3.829,1.02,5.872,1.02
			c2.552,0,4.594-0.51,6.638-1.275c1.531-0.767,3.062-1.786,4.338-2.807c1.276-1.022,2.298-2.298,3.32-3.318
			c2.553-3.83,4.083-7.149,5.105-10.212c0.254-1.276,0.766-2.552,1.02-3.573c0-1.023,0.257-1.531,0.257-1.531
			c0-0.768,0.253-1.534,0-2.298c0-0.256-0.257-2.042-0.768-5.872c-0.509-3.574-1.276-8.681-2.296-15.316
			c-0.766-6.381-2.042-13.529-3.318-21.697c-1.276-8.17-2.553-16.593-4.34-25.527c-1.533-8.936-3.318-17.614-5.105-26.293
			c-1.789-8.68-3.576-16.85-5.618-24.508c-2.041-7.401-4.083-14.04-6.127-19.654c-1.276-2.81-2.296-5.362-3.572-7.404
			c-1.022-2.299-2.553-4.34-4.086-5.871c-0.254-1.787-0.254-4.086-0.254-6.893c0-4.594,0.254-9.7,1.022-16.082
			c0.509-6.127,1.785-13.021,3.572-20.422c1.533-5.616,3.318-11.232,5.616-17.104c2.553-5.616,5.361-11.487,8.936-17.358
			c5.105-8.935,11.999-17.361,20.422-25.273c8.423-8.169,18.891-15.063,31.398-21.699c12.764-6.636,27.825-11.741,45.438-15.316
			c17.615-3.829,38.292-5.871,62.035-5.871c21.186,0,40.333,1.53,56.668,4.848c16.592,3.064,30.889,7.405,43.141,12.764
			c9.191,4.086,17.359,8.68,24.764,13.531c7.146,5.106,13.275,10.211,18.889,15.826c7.914,8.425,14.551,17.104,19.4,26.038
			c5.107,8.934,8.68,17.87,11.232,26.293c2.299,8.68,4.084,16.592,4.852,23.742c1.021,7.402,1.275,13.274,1.275,17.87
			c0,1.53,0,3.063-0.254,4.34c0,0.253-0.256,0.253-0.51,0.508c-1.533,1.788-3.064,3.829-4.34,6.128
			c-2.043,4.083-4.084,9.189-6.129,15.316c-1.531,5.36-3.318,11.234-4.85,17.869c-1.787,6.383-3.316,13.275-4.592,20.423
			c-2.301,10.721-4.34,21.443-6.129,32.42c-2.043,10.723-3.574,20.677-4.852,29.865c-1.531,8.934-2.553,16.339-3.318,21.698
			c-0.766,5.616-1.02,8.425-1.277,8.681c0,0.764,0,1.53,0.258,2.298c0,0.255,0.254,1.276,0.766,3.318
			c0.512,1.786,1.275,4.082,2.553,6.893c1.02,2.552,3.063,5.359,5.617,7.912c1.529,1.276,3.061,2.298,5.104,3.318
			c1.787,0.766,4.084,1.275,6.383,1.275c2.041,0,4.084-0.51,6.125-1.02c1.023,1.02,2.299,1.786,3.83,2.042
			c5.869,1.277,11.488,1.788,16.85,1.788c9.697,0,18.633-2.044,26.291-5.872c5.873-3.063,10.977-6.637,15.316-11.488
			c6.383-6.891,11.742-15.57,15.57-25.271c3.83-9.957,6.895-20.679,9.193-32.419c2.551-12.508,3.828-24.763,3.828-36.504
			c0-8.68-0.77-16.593-2.553-24.506c-1.275-5.615-3.064-11.233-5.615-16.339c-2.555-5.359-5.873-9.956-9.957-14.294
			c-5.617-5.874-12.764-10.468-21.189-13.532c0-2.808,0.256-5.871,0.256-9.188c0-6.382-0.256-14.041-1.277-22.721
			c-0.764-8.677-2.553-17.869-4.848-28.08c-2.043-7.401-4.34-15.316-7.404-23.229c-3.063-7.659-6.893-15.573-11.486-23.485
			c-6.895-11.999-15.826-23.486-26.805-34.208c-10.721-10.977-24.25-20.675-40.078-29.099
			c-16.082-8.424-34.717-15.063-56.414-19.911C372.33,96.553,347.314,94.254,319.492,94z M248.014,116.975
			c20.167-4.852,44.163-7.404,71.478-7.659c23.993,0.254,45.438,2.041,64.073,5.616c18.891,3.829,35.227,8.679,49.266,15.06
			c10.469,4.851,19.912,9.957,28.338,15.827c8.168,5.871,15.57,12.252,21.699,18.635c9.441,10.21,17.1,20.422,22.975,31.4
			c5.869,10.719,10.211,21.699,13.271,32.418c3.064,10.467,5.104,20.422,6.127,29.867c1.021,9.192,1.531,17.359,1.531,23.998
			c0,3.574-0.254,6.892-0.254,9.445l-11.742-1.787c0.254-1.022,0.254-2.299,0.254-3.318c0-4.595-0.51-10.467-1.021-17.104
			c-0.764-6.639-2.043-14.297-4.084-22.464c-1.529-6.382-3.574-12.764-6.127-19.146c-2.809-6.639-5.869-13.274-9.955-19.913
			c-5.869-10.211-13.527-19.911-23.23-29.1c-9.443-9.192-21.441-17.615-35.48-25.016c-14.041-7.15-30.633-13.021-49.525-17.104
			c-19.146-4.339-41.355-6.381-66.114-6.381c-21.957,0-41.613,1.531-58.715,4.849c-17.359,3.063-32.676,7.657-45.948,13.531
			c-9.957,4.337-18.892,8.936-26.804,14.549c-7.915,5.362-15.062,10.979-20.933,17.104c-9.192,9.191-16.593,18.891-21.955,28.845
			c-5.614,9.703-9.7,19.402-12.506,29.102c-2.811,9.445-4.596,18.124-5.618,26.038c-0.764,8.169-1.276,15.061-1.276,20.422
			c0,1.788,0,3.575,0.254,5.106l-11.996,1.787c0-1.276,0-2.299,0-3.576c-0.257-5.105,0.253-11.741,1.02-19.656
			c0.51-7.913,2.041-16.593,4.085-26.039c1.785-6.89,3.829-14.294,6.382-21.698c2.807-7.658,6.125-15.316,10.21-22.717
			c5.871-11.488,13.783-22.464,23.74-32.676c9.7-10.467,21.698-19.913,36.249-28.336
			C210.232,128.716,227.593,122.08,248.014,116.975z M560.979,330.128c1.277,2.554,2.043,5.616,2.807,8.681
			c-0.254,0.255-0.254,0.512-0.254,0.512c-2.553,4.848-4.85,11.229-7.146,19.145c-2.297,8.168-4.34,16.848-6.383,26.292
			c-1.275,6.383-2.297,12.508-3.318,18.636c-1.021,6.124-1.787,11.998-2.297,17.358c-0.512,5.616-0.766,10.464-0.766,14.804
			c0,1.789,0,3.577,0.254,5.363c-2.043,2.295-3.828,4.338-5.871,6.125c-3.574,2.809-7.404,5.104-11.742,6.639
			c-4.34,1.784-9.445,2.553-15.314,2.553c-2.043,0-4.086-0.257-6.381-0.257l28.844-148.058c1.531,0,3.064-0.509,4.594-1.277
			c0-0.255,0-0.255,0.254-0.255c2.553,1.023,4.854,2.299,7.152,3.83C552.555,315.068,557.916,321.705,560.979,330.128z
			 M563.277,345.702c0.508-0.769,1.02-1.788,1.275-2.554c0.254,0.766,0.254,1.531,0.508,2.296c0.514,4.596,0.77,9.445,0.77,14.552
			c0,10.465-1.277,21.697-3.574,33.439c-1.789,9.957-4.34,18.891-7.146,26.803c-2.301,6.129-4.852,11.488-7.918,16.083
			c-0.252,0.256-0.508,0.768-1.02,1.276c0-0.509,0-1.276,0-2.043c0-5.359,0.258-11.229,1.279-18.122
			c0.764-6.892,1.785-14.297,3.061-21.699c1.533-7.658,3.063-15.062,4.598-22.463c1.275-5.361,2.551-10.468,4.082-15.063
			C560.467,353.36,562,349.274,563.277,345.702z M101.998,306.388c1.53,1.023,3.064,1.532,4.849,1.532l28.591,148.058
			c-2.042,0-4.34,0.257-6.125,0.257c-7.916,0-14.297-1.532-19.657-4.34c-4.086-2.043-7.658-4.595-10.977-8.169
			c-0.768-0.766-1.534-1.788-2.298-2.808c0-1.786,0.253-3.574,0.253-5.363c0-5.359-0.509-11.486-1.276-18.38
			c-0.766-7.146-1.785-14.293-3.318-21.951c-1.277-7.658-2.807-15.06-4.594-22.465c-1.277-5.359-2.553-10.464-4.084-15.316
			c-1.276-4.594-2.809-8.935-4.34-12.509c-0.765-2.295-1.787-4.338-2.552-6.125c2.042-9.445,5.871-17.104,11.741-23.232
			C91.786,311.748,96.381,308.687,101.998,306.388L101.998,306.388z M75.704,343.148c2.042,4.596,4.084,10.72,6.125,18.124
			c2.042,7.404,4.086,15.571,5.872,23.997c1.276,6.124,2.298,12.252,3.32,18.376c0.765,6.129,1.531,11.999,2.042,17.359
			c0.765,5.362,1.019,10.21,1.019,14.55c0,0.767,0,1.534-0.254,2.299c-0.254-0.51-0.512-1.022-1.022-1.532
			c-2.296-4.084-4.594-8.425-6.636-13.272c-3.318-8.427-6.128-18.381-8.423-29.613c-2.299-11.742-3.318-22.975-3.576-33.439
			C74.171,353.868,74.683,348.254,75.704,343.148z"/>
		<path fill="#FFFFFF" d="M319.492,109.316c-27.315,0.254-51.312,2.807-71.478,7.659c-20.421,5.105-37.782,11.741-52.331,19.911
			c-14.551,8.423-26.549,17.869-36.249,28.336c-9.957,10.211-17.869,21.188-23.74,32.676c-4.085,7.401-7.404,15.059-10.21,22.717
			c-2.553,7.404-4.598,14.808-6.382,21.698c-2.044,9.445-3.576,18.125-4.085,26.039c-0.767,7.915-1.277,14.551-1.02,19.656
			c0,1.277,0,2.3,0,3.576l11.996-1.787c-0.254-1.531-0.254-3.318-0.254-5.106c0-5.361,0.512-12.253,1.276-20.422
			c1.022-7.914,2.808-16.593,5.618-26.038c2.807-9.7,6.892-19.399,12.506-29.102c5.362-9.954,12.763-19.654,21.955-28.845
			c5.871-6.125,13.018-11.742,20.933-17.104c7.913-5.613,16.847-10.211,26.804-14.549c13.271-5.874,28.588-10.468,45.948-13.531
			c17.102-3.318,36.758-4.849,58.715-4.849c24.758,0,46.967,2.042,66.114,6.381c18.893,4.084,35.484,9.954,49.525,17.104
			c14.039,7.401,26.037,15.824,35.48,25.016c9.703,9.189,17.361,18.889,23.23,29.1c4.086,6.638,7.146,13.274,9.955,19.913
			c2.553,6.382,4.598,12.764,6.127,19.146c2.041,8.167,3.32,15.825,4.084,22.464c0.512,6.636,1.021,12.508,1.021,17.104
			c0,1.019,0,2.296-0.254,3.318l11.742,1.787c0-2.553,0.254-5.872,0.254-9.445c0-6.639-0.51-14.806-1.531-23.998
			c-1.023-9.445-3.063-19.399-6.127-29.867c-3.061-10.72-7.402-21.699-13.271-32.418c-5.875-10.979-13.533-21.19-22.975-31.4
			c-6.129-6.382-13.531-12.764-21.699-18.635c-8.426-5.871-17.869-10.976-28.338-15.827c-14.039-6.381-30.375-11.231-49.266-15.06
			C364.93,111.357,343.484,109.571,319.492,109.316z"/>
		<path fill="#FFFFFF" d="M563.785,338.809c-0.764-3.064-1.529-6.127-2.807-8.681c-3.063-8.423-8.424-15.06-15.568-19.911
			c-2.299-1.531-4.6-2.807-7.152-3.83c-0.254,0-0.254,0-0.254,0.255c-1.529,0.768-3.063,1.277-4.594,1.277l-28.844,148.058
			c2.295,0,4.338,0.257,6.381,0.257c5.869,0,10.975-0.769,15.314-2.553c4.338-1.534,8.168-3.83,11.742-6.639
			c2.043-1.787,3.828-3.83,5.871-6.125c-0.254-1.786-0.254-3.574-0.254-5.363c0-4.34,0.254-9.188,0.766-14.804
			c0.51-5.36,1.275-11.234,2.297-17.358c1.021-6.128,2.043-12.253,3.318-18.636c2.043-9.444,4.086-18.124,6.383-26.292
			c2.297-7.915,4.594-14.297,7.146-19.145C563.531,339.32,563.531,339.063,563.785,338.809z"/>
		<path fill="#FFFFFF" d="M565.061,345.444l-1.783,0.258c-1.277,3.572-2.811,7.658-4.086,12.506
			c-1.531,4.595-2.807,9.701-4.082,15.063c-1.535,7.401-3.064,14.805-4.598,22.463c-1.275,7.402-2.297,14.808-3.061,21.699
			c-1.021,6.893-1.279,12.763-1.279,18.122l1.02,0.767c3.066-4.595,5.617-9.954,7.918-16.083c2.807-7.912,5.357-16.846,7.146-26.803
			c2.297-11.742,3.574-22.975,3.574-33.439C565.83,354.89,565.574,350.04,565.061,345.444z"/>
		<path fill="#FFFFFF" d="M106.846,307.919c-1.785,0-3.318-0.509-4.849-1.532l0,0c-5.616,2.299-10.211,5.36-13.786,9.188
			c-5.871,6.129-9.7,13.787-11.741,23.232c0.765,1.787,1.787,3.83,2.552,6.125c1.531,3.574,3.064,7.915,4.34,12.509
			c1.532,4.853,2.808,9.957,4.084,15.316c1.787,7.405,3.317,14.807,4.594,22.465c1.533,7.658,2.552,14.805,3.318,21.951
			c0.767,6.894,1.276,13.021,1.276,18.38c0,1.789-0.253,3.577-0.253,5.363c0.764,1.02,1.53,2.042,2.298,2.808
			c3.318,3.574,6.89,6.126,10.977,8.169c5.36,2.808,11.741,4.34,19.657,4.34c1.785,0,4.083-0.257,6.125-0.257L106.846,307.919z"/>
		<path fill="#FFFFFF" d="M81.829,361.272c-2.041-7.404-4.083-13.528-6.125-18.124c-1.021,5.105-1.533,10.72-1.533,16.848
			c0.257,10.465,1.277,21.697,3.576,33.439c2.295,11.232,5.105,21.187,8.423,29.613c2.042,4.848,4.34,9.188,6.636,13.272
			l1.276-0.767c0-4.34-0.254-9.188-1.019-14.55c-0.511-5.36-1.277-11.23-2.042-17.359c-1.022-6.124-2.044-12.252-3.32-18.376
			C85.916,376.844,83.872,368.677,81.829,361.272z"/>
	</g>
</g>
</svg>
